<svg width="70" height="26" viewBox="0 0 70 26" fill="none" xmlns="http://www.w3.org/2000/svg">
<rect width="70" height="26" rx="2" fill="#EFD33D"/>
<path d="M12.142 17V10.316H10.534V9.446C11.042 9.446 11.444 9.404 11.74 9.32C12.04 9.232 12.258 9.104 12.394 8.936C12.534 8.768 12.614 8.564 12.634 8.324H13.63V17H12.142ZM18.6333 17.132C18.1253 17.132 17.6493 17.034 17.2053 16.838C16.7613 16.642 16.3953 16.364 16.1073 16.004C15.8193 15.644 15.6513 15.22 15.6033 14.732H17.0013C17.0853 15.096 17.2673 15.392 17.5473 15.62C17.8273 15.844 18.1713 15.956 18.5793 15.956C19.0393 15.956 19.4373 15.842 19.7733 15.614C20.1133 15.386 20.3673 15.028 20.5353 14.54C20.7033 14.052 20.7653 13.418 20.7213 12.638C20.6133 12.894 20.4553 13.118 20.2473 13.31C20.0433 13.502 19.7993 13.652 19.5153 13.76C19.2353 13.864 18.9233 13.916 18.5793 13.916C17.9993 13.916 17.4853 13.806 17.0373 13.586C16.5933 13.362 16.2453 13.044 15.9933 12.632C15.7413 12.216 15.6153 11.724 15.6153 11.156C15.6153 10.58 15.7433 10.07 15.9993 9.626C16.2593 9.182 16.6233 8.834 17.0913 8.582C17.5633 8.33 18.1173 8.204 18.7533 8.204C19.4613 8.204 20.0733 8.378 20.5893 8.726C21.1053 9.074 21.5013 9.57 21.7773 10.214C22.0573 10.858 22.1973 11.622 22.1973 12.506C22.1973 13.514 22.0553 14.362 21.7713 15.05C21.4913 15.734 21.0853 16.252 20.5533 16.604C20.0253 16.956 19.3853 17.132 18.6333 17.132ZM18.7953 12.728C19.0753 12.728 19.3433 12.664 19.5993 12.536C19.8553 12.408 20.0653 12.242 20.2293 12.038C20.3933 11.834 20.4753 11.618 20.4753 11.39C20.4793 10.974 20.4113 10.614 20.2713 10.31C20.1313 10.002 19.9333 9.764 19.6773 9.596C19.4253 9.424 19.1293 9.338 18.7893 9.338C18.4813 9.338 18.2053 9.412 17.9613 9.56C17.7213 9.708 17.5333 9.914 17.3973 10.178C17.2613 10.438 17.1933 10.74 17.1933 11.084C17.1933 11.596 17.3353 11.998 17.6193 12.29C17.9033 12.582 18.2953 12.728 18.7953 12.728ZM25.4683 8.192C25.8683 8.192 26.2283 8.3 26.5483 8.516C26.8683 8.728 27.1203 9.02 27.3043 9.392C27.4883 9.764 27.5803 10.192 27.5803 10.676C27.5803 11.156 27.4883 11.58 27.3043 11.948C27.1243 12.316 26.8743 12.606 26.5543 12.818C26.2343 13.026 25.8723 13.13 25.4683 13.13C25.0603 13.13 24.6943 13.026 24.3703 12.818C24.0503 12.606 23.7963 12.316 23.6083 11.948C23.4243 11.58 23.3323 11.156 23.3323 10.676C23.3323 10.192 23.4263 9.764 23.6143 9.392C23.8023 9.02 24.0563 8.728 24.3763 8.516C24.7003 8.3 25.0643 8.192 25.4683 8.192ZM25.4563 12.356C25.8003 12.356 26.0583 12.206 26.2303 11.906C26.4023 11.602 26.4883 11.192 26.4883 10.676C26.4883 10.148 26.4003 9.73 26.2243 9.422C26.0523 9.11 25.7963 8.954 25.4563 8.954C25.2323 8.954 25.0423 9.026 24.8863 9.17C24.7343 9.31 24.6183 9.51 24.5383 9.77C24.4583 10.026 24.4183 10.328 24.4183 10.676C24.4183 11.188 24.5063 11.596 24.6823 11.9C24.8583 12.204 25.1163 12.356 25.4563 12.356ZM31.0423 12.17C31.4463 12.17 31.8083 12.278 32.1283 12.494C32.4483 12.71 32.7003 13.006 32.8843 13.382C33.0683 13.754 33.1603 14.178 33.1603 14.654C33.1603 15.138 33.0683 15.566 32.8843 15.938C32.7043 16.306 32.4543 16.596 32.1343 16.808C31.8143 17.016 31.4503 17.12 31.0423 17.12C30.6343 17.12 30.2683 17.016 29.9443 16.808C29.6203 16.596 29.3663 16.306 29.1823 15.938C28.9983 15.566 28.9063 15.138 28.9063 14.654C28.9063 14.178 28.9983 13.754 29.1823 13.382C29.3703 13.006 29.6263 12.71 29.9503 12.494C30.2743 12.278 30.6383 12.17 31.0423 12.17ZM31.0303 16.34C31.2543 16.34 31.4423 16.27 31.5943 16.13C31.7503 15.99 31.8663 15.796 31.9423 15.548C32.0223 15.296 32.0623 15.002 32.0623 14.666C32.0623 14.322 32.0223 14.022 31.9423 13.766C31.8623 13.506 31.7443 13.304 31.5883 13.16C31.4363 13.016 31.2503 12.944 31.0303 12.944C30.8103 12.944 30.6243 13.018 30.4723 13.166C30.3203 13.31 30.2023 13.512 30.1183 13.772C30.0383 14.028 29.9983 14.326 29.9983 14.666C29.9983 15.002 30.0383 15.296 30.1183 15.548C30.1983 15.796 30.3143 15.99 30.4663 16.13C30.6183 16.27 30.8063 16.34 31.0303 16.34ZM31.5403 8.228L25.7083 17.048L24.8023 17.036L30.6583 8.228H31.5403ZM40.9669 17.12C40.1669 17.12 39.4749 16.944 38.8909 16.592C38.3109 16.24 37.8609 15.732 37.5409 15.068C37.2249 14.404 37.0669 13.608 37.0669 12.68C37.0669 11.744 37.2269 10.942 37.5469 10.274C37.8669 9.606 38.3189 9.094 38.9029 8.738C39.4909 8.382 40.1789 8.204 40.9669 8.204C41.7549 8.204 42.4369 8.382 43.0129 8.738C43.5929 9.094 44.0409 9.606 44.3569 10.274C44.6729 10.942 44.8309 11.744 44.8309 12.68C44.8309 13.608 44.6749 14.404 44.3629 15.068C44.0509 15.728 43.6049 16.236 43.0249 16.592C42.4449 16.944 41.7589 17.12 40.9669 17.12ZM40.9669 15.896C41.4389 15.896 41.8449 15.786 42.1849 15.566C42.5249 15.342 42.7849 14.996 42.9649 14.528C43.1489 14.056 43.2409 13.446 43.2409 12.698C43.2409 11.938 43.1489 11.318 42.9649 10.838C42.7809 10.354 42.5189 9.998 42.1789 9.77C41.8389 9.542 41.4349 9.428 40.9669 9.428C40.4949 9.428 40.0869 9.544 39.7429 9.776C39.4029 10.004 39.1389 10.36 38.9509 10.844C38.7629 11.324 38.6689 11.942 38.6689 12.698C38.6689 13.446 38.7629 14.056 38.9509 14.528C39.1389 14.996 39.4029 15.342 39.7429 15.566C40.0869 15.786 40.4949 15.896 40.9669 15.896ZM46.4875 8.324H52.1635L52.1575 9.56H47.9695V12.056H51.6655V13.274H47.9695V17H46.4875V8.324ZM53.7414 8.324H59.4174L59.4114 9.56H55.2234V12.056H58.9194V13.274H55.2234V17H53.7414V8.324Z" fill="#191C1F"/>
</svg>
