<svg width="60" height="10" viewBox="0 0 60 10" fill="none" xmlns="http://www.w3.org/2000/svg">
<path d="M4.17 9.12C3.61 9.12 3.072 9.026 2.556 8.838C2.044 8.65 1.614 8.37 1.266 7.998C0.918 7.626 0.71 7.16 0.642 6.6H2.154C2.25 7.04 2.482 7.376 2.85 7.608C3.218 7.836 3.656 7.95 4.164 7.95C4.7 7.95 5.154 7.844 5.526 7.632C5.898 7.42 6.084 7.112 6.084 6.708C6.084 6.352 5.948 6.078 5.676 5.886C5.404 5.69 5.046 5.544 4.602 5.448L3.006 5.1C2.358 4.968 1.846 4.712 1.47 4.332C1.098 3.952 0.908 3.446 0.9 2.814C0.896 2.29 1.034 1.834 1.314 1.446C1.594 1.054 1.978 0.751999 2.466 0.539999C2.958 0.323999 3.512 0.215999 4.128 0.215999C4.848 0.215999 5.454 0.333999 5.946 0.569999C6.438 0.806 6.81 1.12 7.062 1.512C7.318 1.9 7.45 2.328 7.458 2.796H5.982C5.93 2.28 5.73 1.92 5.382 1.716C5.038 1.508 4.626 1.404 4.146 1.404C3.666 1.404 3.26 1.514 2.928 1.734C2.6 1.954 2.436 2.26 2.436 2.652C2.436 2.932 2.528 3.16 2.712 3.336C2.9 3.508 3.25 3.654 3.762 3.774L5.322 4.122C5.806 4.218 6.196 4.364 6.492 4.56C6.788 4.752 7.012 4.97 7.164 5.214C7.32 5.458 7.424 5.71 7.476 5.97C7.532 6.226 7.56 6.468 7.56 6.696C7.56 7.148 7.422 7.558 7.146 7.926C6.87 8.29 6.478 8.58 5.97 8.796C5.462 9.012 4.862 9.12 4.17 9.12ZM12.6037 9.12C11.8037 9.12 11.1117 8.944 10.5277 8.592C9.94766 8.24 9.49766 7.734 9.17766 7.074C8.86166 6.41 8.70366 5.612 8.70366 4.68C8.70366 3.744 8.86366 2.942 9.18366 2.274C9.50366 1.606 9.95566 1.094 10.5397 0.737999C11.1237 0.381999 11.8117 0.204 12.6037 0.204C13.3917 0.204 14.0737 0.381999 14.6497 0.737999C15.2297 1.094 15.6777 1.606 15.9937 2.274C16.3097 2.942 16.4677 3.744 16.4677 4.68C16.4677 5.608 16.3117 6.404 15.9997 7.068C15.6877 7.728 15.2417 8.236 14.6617 8.592C14.0817 8.944 13.3957 9.12 12.6037 9.12ZM12.6037 7.896C13.3157 7.896 13.8717 7.644 14.2717 7.14C14.6757 6.632 14.8777 5.818 14.8777 4.698C14.8777 3.558 14.6737 2.728 14.2657 2.208C13.8617 1.688 13.3077 1.428 12.6037 1.428C11.8997 1.428 11.3397 1.69 10.9237 2.214C10.5117 2.734 10.3057 3.562 10.3057 4.698C10.3057 5.822 10.5117 6.636 10.9237 7.14C11.3397 7.644 11.8997 7.896 12.6037 7.896ZM18.1302 0.323999H19.6062V7.74H23.5242V9H18.1242L18.1302 0.323999ZM25.05 0.323999C25.086 0.323999 25.19 0.323999 25.362 0.323999C25.538 0.323999 25.748 0.323999 25.992 0.323999C26.236 0.323999 26.482 0.325999 26.73 0.33C26.978 0.33 27.196 0.332 27.384 0.335999C28.968 0.367999 30.114 0.756 30.822 1.5C31.53 2.244 31.884 3.282 31.884 4.614C31.884 6.006 31.51 7.086 30.762 7.854C30.014 8.618 28.858 9 27.294 9H25.05V0.323999ZM26.532 1.53V7.794H27.318C27.914 7.794 28.44 7.692 28.896 7.488C29.352 7.28 29.708 6.944 29.964 6.48C30.224 6.016 30.354 5.396 30.354 4.62C30.354 3.868 30.234 3.266 29.994 2.814C29.754 2.362 29.41 2.036 28.962 1.836C28.514 1.632 27.978 1.53 27.354 1.53H26.532ZM39.6505 9.12C38.8505 9.12 38.1585 8.944 37.5745 8.592C36.9945 8.24 36.5445 7.734 36.2245 7.074C35.9085 6.41 35.7505 5.612 35.7505 4.68C35.7505 3.744 35.9105 2.942 36.2305 2.274C36.5505 1.606 37.0025 1.094 37.5865 0.737999C38.1705 0.381999 38.8585 0.204 39.6505 0.204C40.4385 0.204 41.1205 0.381999 41.6965 0.737999C42.2765 1.094 42.7245 1.606 43.0405 2.274C43.3565 2.942 43.5145 3.744 43.5145 4.68C43.5145 5.608 43.3585 6.404 43.0465 7.068C42.7345 7.728 42.2885 8.236 41.7085 8.592C41.1285 8.944 40.4425 9.12 39.6505 9.12ZM39.6505 7.896C40.3625 7.896 40.9185 7.644 41.3185 7.14C41.7225 6.632 41.9245 5.818 41.9245 4.698C41.9245 3.558 41.7205 2.728 41.3125 2.208C40.9085 1.688 40.3545 1.428 39.6505 1.428C38.9465 1.428 38.3865 1.69 37.9705 2.214C37.5585 2.734 37.3525 3.562 37.3525 4.698C37.3525 5.822 37.5585 6.636 37.9705 7.14C38.3865 7.644 38.9465 7.896 39.6505 7.896ZM51.7025 5.832C51.7025 6.86 51.4445 7.666 50.9285 8.25C50.4125 8.83 49.5565 9.12 48.3605 9.12C47.5605 9.12 46.9145 8.988 46.4225 8.724C45.9345 8.456 45.5805 8.072 45.3605 7.572C45.1405 7.068 45.0305 6.46 45.0305 5.748V0.323999H46.5245V5.898C46.5245 6.57 46.6885 7.066 47.0165 7.386C47.3445 7.706 47.7925 7.866 48.3605 7.866C48.9285 7.866 49.3805 7.708 49.7165 7.392C50.0565 7.072 50.2265 6.574 50.2265 5.898V0.323999H51.7025V5.832ZM52.7989 1.638V0.323999H59.5669V1.638H56.9629V9H55.4989V1.638H52.7989Z" fill="white"/>
</svg>
