<svg width="20" height="20" viewBox="0 0 20 20" fill="none" xmlns="http://www.w3.org/2000/svg">
<path d="M10.3437 14.8984L14.2812 17.3984C14.7891 17.7188 15.4141 17.2422 15.2656 16.6562L14.125 12.1719C14.0942 12.0476 14.0991 11.9171 14.1391 11.7955C14.1792 11.6738 14.2529 11.566 14.3516 11.4844L17.8828 8.53906C18.3437 8.15625 18.1094 7.38281 17.5078 7.34375L12.8984 7.04688C12.7727 7.03956 12.6518 6.99576 12.5505 6.92084C12.4492 6.84592 12.3719 6.74312 12.3281 6.625L10.6094 2.29688C10.5639 2.1718 10.481 2.06375 10.372 1.9874C10.263 1.91105 10.1331 1.8701 10 1.8701C9.8669 1.8701 9.73703 1.91105 9.62802 1.9874C9.519 2.06375 9.43612 2.1718 9.39062 2.29688L7.67187 6.625C7.62807 6.74312 7.5508 6.84592 7.44952 6.92084C7.34824 6.99576 7.22733 7.03956 7.10156 7.04688L2.49218 7.34375C1.89062 7.38281 1.65625 8.15625 2.11718 8.53906L5.64843 11.4844C5.74713 11.566 5.82077 11.6738 5.86085 11.7955C5.90094 11.9171 5.90584 12.0476 5.875 12.1719L4.82031 16.3281C4.64062 17.0312 5.39062 17.6016 5.99218 17.2188L9.65625 14.8984C9.75899 14.8331 9.87823 14.7984 10 14.7984C10.1218 14.7984 10.241 14.8331 10.3437 14.8984Z" fill="#EBC80C"/>
</svg>
