<svg width="73" height="26" viewBox="0 0 73 26" fill="none" xmlns="http://www.w3.org/2000/svg">
<rect width="73" height="26" rx="2" fill="#EFD33D"/>
<path d="M10.708 17V15.818C10.708 15.374 10.79 14.992 10.954 14.672C11.118 14.348 11.336 14.066 11.608 13.826C11.88 13.586 12.178 13.374 12.502 13.19C12.826 13.002 13.15 12.826 13.474 12.662C13.802 12.494 14.1 12.322 14.368 12.146C14.64 11.966 14.858 11.766 15.022 11.546C15.19 11.322 15.274 11.06 15.274 10.76C15.274 10.372 15.136 10.056 14.86 9.812C14.588 9.564 14.218 9.44 13.75 9.44C13.254 9.44 12.844 9.582 12.52 9.866C12.196 10.15 12.006 10.55 11.95 11.066H10.534C10.542 10.538 10.668 10.058 10.912 9.626C11.156 9.194 11.518 8.85 11.998 8.594C12.478 8.334 13.076 8.204 13.792 8.204C14.412 8.204 14.946 8.312 15.394 8.528C15.846 8.74 16.194 9.038 16.438 9.422C16.686 9.802 16.81 10.246 16.81 10.754C16.81 11.198 16.728 11.578 16.564 11.894C16.404 12.21 16.19 12.484 15.922 12.716C15.658 12.944 15.366 13.146 15.046 13.322C14.73 13.498 14.412 13.664 14.092 13.82C13.776 13.972 13.484 14.132 13.216 14.3C12.952 14.464 12.738 14.652 12.574 14.864C12.414 15.076 12.334 15.33 12.334 15.626V15.752H16.828V17H10.708ZM18.8283 8.324H24.2223L24.1683 9.542H20.0163L19.8183 11.954C20.1263 11.738 20.4363 11.582 20.7483 11.486C21.0603 11.39 21.4043 11.342 21.7803 11.342C22.3283 11.342 22.8283 11.45 23.2803 11.666C23.7323 11.882 24.0923 12.2 24.3603 12.62C24.6323 13.04 24.7683 13.554 24.7683 14.162C24.7683 14.77 24.6323 15.296 24.3603 15.74C24.0923 16.184 23.7123 16.528 23.2203 16.772C22.7323 17.012 22.1543 17.132 21.4863 17.132C20.9343 17.132 20.4203 17.042 19.9443 16.862C19.4723 16.678 19.0643 16.426 18.7203 16.106C18.3803 15.786 18.1263 15.42 17.9583 15.008L19.1403 14.384C19.3643 14.832 19.6523 15.204 20.0043 15.5C20.3603 15.792 20.8103 15.938 21.3543 15.938C21.9183 15.938 22.3703 15.782 22.7103 15.47C23.0543 15.154 23.2263 14.734 23.2263 14.21C23.2263 13.886 23.1463 13.598 22.9863 13.346C22.8303 13.094 22.6163 12.898 22.3443 12.758C22.0723 12.614 21.7663 12.542 21.4263 12.542C21.1183 12.542 20.8363 12.586 20.5803 12.674C20.3283 12.758 20.0463 12.946 19.7343 13.238C19.6743 13.262 19.6143 13.26 19.5543 13.232L18.4323 12.776L18.8283 8.324ZM28.0464 8.192C28.4464 8.192 28.8064 8.3 29.1264 8.516C29.4464 8.728 29.6984 9.02 29.8824 9.392C30.0664 9.764 30.1584 10.192 30.1584 10.676C30.1584 11.156 30.0664 11.58 29.8824 11.948C29.7024 12.316 29.4524 12.606 29.1324 12.818C28.8124 13.026 28.4504 13.13 28.0464 13.13C27.6384 13.13 27.2724 13.026 26.9484 12.818C26.6284 12.606 26.3744 12.316 26.1864 11.948C26.0024 11.58 25.9104 11.156 25.9104 10.676C25.9104 10.192 26.0044 9.764 26.1924 9.392C26.3804 9.02 26.6344 8.728 26.9544 8.516C27.2784 8.3 27.6424 8.192 28.0464 8.192ZM34.1184 8.228L28.2864 17.048L27.3804 17.036L33.2364 8.228H34.1184ZM28.0344 12.356C28.3784 12.356 28.6364 12.206 28.8084 11.906C28.9804 11.602 29.0664 11.192 29.0664 10.676C29.0664 10.152 28.9784 9.734 28.8024 9.422C28.6264 9.11 28.3704 8.954 28.0344 8.954C27.6944 8.954 27.4364 9.112 27.2604 9.428C27.0844 9.74 26.9964 10.156 26.9964 10.676C26.9964 11.188 27.0844 11.596 27.2604 11.9C27.4364 12.204 27.6944 12.356 28.0344 12.356ZM33.6204 12.17C34.0244 12.17 34.3864 12.278 34.7064 12.494C35.0264 12.71 35.2784 13.006 35.4624 13.382C35.6464 13.754 35.7384 14.178 35.7384 14.654C35.7384 15.138 35.6464 15.566 35.4624 15.938C35.2784 16.306 35.0264 16.596 34.7064 16.808C34.3904 17.016 34.0284 17.12 33.6204 17.12C33.2124 17.12 32.8464 17.016 32.5224 16.808C32.2024 16.596 31.9484 16.306 31.7604 15.938C31.5764 15.566 31.4844 15.138 31.4844 14.654C31.4844 14.178 31.5784 13.754 31.7664 13.382C31.9544 13.006 32.2084 12.71 32.5284 12.494C32.8524 12.278 33.2164 12.17 33.6204 12.17ZM33.6084 16.34C33.9444 16.34 34.2004 16.188 34.3764 15.884C34.5524 15.576 34.6404 15.17 34.6404 14.666C34.6404 14.15 34.5504 13.734 34.3704 13.418C34.1904 13.102 33.9364 12.944 33.6084 12.944C33.2764 12.944 33.0204 13.104 32.8404 13.424C32.6644 13.744 32.5764 14.158 32.5764 14.666C32.5764 15.17 32.6644 15.576 32.8404 15.884C33.0204 16.188 33.2764 16.34 33.6084 16.34ZM43.5451 17.12C42.7451 17.12 42.0531 16.944 41.4691 16.592C40.8891 16.24 40.4391 15.734 40.1191 15.074C39.8031 14.41 39.6451 13.612 39.6451 12.68C39.6451 11.744 39.8051 10.942 40.1251 10.274C40.4451 9.606 40.8971 9.094 41.4811 8.738C42.0651 8.382 42.7531 8.204 43.5451 8.204C44.3331 8.204 45.0151 8.382 45.5911 8.738C46.1711 9.094 46.6191 9.606 46.9351 10.274C47.2511 10.942 47.4091 11.744 47.4091 12.68C47.4091 13.608 47.2531 14.404 46.9411 15.068C46.6291 15.728 46.1831 16.236 45.6031 16.592C45.0231 16.944 44.3371 17.12 43.5451 17.12ZM43.5451 15.896C44.2571 15.896 44.8131 15.644 45.2131 15.14C45.6171 14.632 45.8191 13.818 45.8191 12.698C45.8191 11.558 45.6151 10.728 45.2071 10.208C44.8031 9.688 44.2491 9.428 43.5451 9.428C42.8411 9.428 42.2811 9.69 41.8651 10.214C41.4531 10.734 41.2471 11.562 41.2471 12.698C41.2471 13.822 41.4531 14.636 41.8651 15.14C42.2811 15.644 42.8411 15.896 43.5451 15.896ZM49.0656 8.324H54.7416L54.7356 9.56H50.5476V12.056H54.2436V13.274H50.5476V17H49.0656V8.324ZM56.3195 8.324H61.9955L61.9895 9.56H57.8015V12.056H61.4975V13.274H57.8015V17H56.3195V8.324Z" fill="#191C1F"/>
</svg>
