<svg width="46" height="26" viewBox="0 0 46 26" fill="none" xmlns="http://www.w3.org/2000/svg">
<rect width="46" height="26" rx="2" fill="#EE5858"/>
<path d="M16.708 13.148H12.508V17H11.05V8.324H12.508V11.906H16.708V8.324H18.166V17H16.708V13.148ZM23.7169 17.12C22.9169 17.12 22.2249 16.944 21.6409 16.592C21.0609 16.24 20.6109 15.734 20.2909 15.074C19.9749 14.41 19.8169 13.612 19.8169 12.68C19.8169 11.744 19.9769 10.942 20.2969 10.274C20.6169 9.606 21.0689 9.094 21.6529 8.738C22.2369 8.382 22.9249 8.204 23.7169 8.204C24.5049 8.204 25.1869 8.382 25.7629 8.738C26.3429 9.094 26.7909 9.606 27.1069 10.274C27.4229 10.942 27.5809 11.744 27.5809 12.68C27.5809 13.608 27.4249 14.404 27.1129 15.068C26.8009 15.728 26.3549 16.236 25.7749 16.592C25.1949 16.944 24.5089 17.12 23.7169 17.12ZM23.7169 15.896C24.4289 15.896 24.9849 15.644 25.3849 15.14C25.7889 14.632 25.9909 13.818 25.9909 12.698C25.9909 11.558 25.7869 10.728 25.3789 10.208C24.9749 9.688 24.4209 9.428 23.7169 9.428C23.0129 9.428 22.4529 9.69 22.0369 10.214C21.6249 10.734 21.4189 11.562 21.4189 12.698C21.4189 13.822 21.6249 14.636 22.0369 15.14C22.4529 15.644 23.0129 15.896 23.7169 15.896ZM28.5215 9.638V8.324H35.2895V9.638H32.6855V17H31.2215V9.638H28.5215Z" fill="white"/>
</svg>
